<svg viewBox="0 0 800 800" xmlns="http://www.w3.org/2000/svg">
  <defs>
    <linearGradient id="vue-green" x1="0%" y1="0%" x2="100%" y2="100%">
      <stop offset="0%" stop-color="#42b883" />
      <stop offset="100%" stop-color="#2a7553" />
    </linearGradient>
    <linearGradient id="vue-slate" x1="0%" y1="0%" x2="100%" y2="100%">
      <stop offset="0%" stop-color="#35495e" />
      <stop offset="100%" stop-color="#1f2b38" />
    </linearGradient>
    
    <linearGradient id="ts-grad" x1="0%" y1="0%" x2="100%" y2="0%">
      <stop offset="0%" stop-color="#FF4154" />
      <stop offset="100%" stop-color="#FFB020" />
    </linearGradient>
    
    <filter id="drop-shadow" x="-20%" y="-20%" width="140%" height="140%">
      <feDropShadow dx="0" dy="16" stdDeviation="16" flood-color="#000000" flood-opacity="0.3"/>
    </filter>

    <filter id="glow" x="-20%" y="-20%" width="140%" height="140%">
      <feGaussianBlur stdDeviation="6" result="blur"/>
      <feMerge>
        <feMergeNode in="blur"/>
        <feMergeNode in="SourceGraphic"/>
      </feMerge>
    </filter>
  </defs>

  <path 
    d="M 180 320 A 220 70 0 0 1 620 320" 
    fill="none" 
    stroke="url(#ts-grad)" 
    stroke-width="24" 
    stroke-linecap="round" 
    opacity="0.4" 
  />

  <g transform="translate(130, 160) scale(2.8)" filter="url(#drop-shadow)">
    <path fill="url(#vue-green)" d="M120.83 0L98.16 39.26 75.49 0H0l98.16 170.02L196.32 0h-75.49z"/>
    <path fill="url(#vue-slate)" d="M120.83 0L98.16 39.26 75.49 0H39.26l58.9 102.01L157.06 0h-36.23z"/>
  </g>

  <path 
    d="M 620 320 A 220 70 0 0 1 180 320" 
    fill="none" 
    stroke="url(#ts-grad)" 
    stroke-width="24" 
    stroke-linecap="round" 
    filter="url(#drop-shadow)"
  />

  <g transform="translate(320, 240) scale(6.5)" filter="url(#glow)">
    <path 
      d="M2 8.82a15 15 0 0 1 20 0" 
      fill="none" 
      stroke="#ffffff" 
      stroke-width="2" 
      stroke-linecap="round" 
      stroke-linejoin="round"
    />
    <path 
      d="M21.378 16.626a1 1 0 0 0-3.004-3.004l-4.01 4.012a2 2 0 0 0-.506.854l-.837 2.87a.5.5 0 0 0 .62.62l2.87-.837a2 2 0 0 0 .854-.506z" 
      fill="none" 
      stroke="#ffffff" 
      stroke-width="2" 
      stroke-linecap="round" 
      stroke-linejoin="round"
    />
    <path 
      d="M5 12.859a10 10 0 0 1 10.5-2.222" 
      fill="none" 
      stroke="#ffffff" 
      stroke-width="2" 
      stroke-linecap="round" 
      stroke-linejoin="round"
    />
    <path 
      d="M8.5 16.429a5 5 0 0 1 3-1.406" 
      fill="none" 
      stroke="#ffffff" 
      stroke-width="2" 
      stroke-linecap="round" 
      stroke-linejoin="round"
    />
  </g>
</svg>