<svg width="512" height="256" viewBox="0 0 512 256" fill="none" xmlns="http://www.w3.org/2000/svg">
<mask id="path-1-inside-1_93_30" fill="white">
<path d="M376.526 57.0068C380.294 57.1252 383.022 58.7971 384.112 59.5469L384.487 59.8115L384.777 60.0254C385.064 60.2435 385.34 60.4747 385.606 60.7178L388.817 63.6514C388.912 63.7255 389.006 63.8 389.099 63.877C391.292 65.705 393.045 68.3238 393.675 71.4883L397.388 69.0225C399.029 67.8348 402.058 66.0879 406.128 66.0879C408.032 66.0879 409.537 66.5283 410.136 66.7139C410.915 66.9554 411.595 67.2338 412.105 67.46C413.134 67.9161 414.146 68.4614 415.037 68.9775C416.85 70.0278 418.881 71.3799 420.796 72.8223C422.666 74.2307 424.777 75.9887 426.552 77.8887C427.429 78.8279 428.487 80.0785 429.393 81.5742C429.959 82.5096 430.904 84.2443 431.363 86.5449C431.955 86.2018 432.501 85.8772 432.991 85.5713C433.793 85.0707 434.653 84.6672 435.55 84.3682C435.573 84.3605 435.998 84.2146 436.467 84.0869C436.777 84.0023 438.128 83.624 439.856 83.624L440.324 83.6318C445.143 83.7997 449.24 86.5479 451.427 90.374C451.447 90.4102 451.468 90.447 451.488 90.4834L457.056 100.466C458.835 103.63 458.704 106.608 458.704 106.824C458.704 111.762 456.062 115.329 453.746 117.259C453.664 117.327 453.58 117.395 453.496 117.461C440.918 127.384 427.333 134.516 413.082 138.699C412.865 138.769 412.519 138.875 412.143 138.97C411.475 139.136 410.349 139.368 408.944 139.368C406.694 139.368 404.589 138.804 402.749 137.827C402.702 138.031 402.652 138.234 402.595 138.436L402.591 138.45C402.574 138.511 402.552 138.57 402.534 138.63C407.038 144.64 409.855 151.983 410.497 160.249L410.742 163.407C410.882 165.201 411.168 166.111 411.382 166.581C411.535 166.919 411.757 167.28 412.348 167.764C413.107 168.334 414.17 169.222 415.196 170.434C416.331 171.772 418.351 174.594 418.669 178.679C419.027 183.29 417.078 187.127 414.461 189.707C414.401 189.769 414.355 189.819 414.324 189.851C414.053 190.125 413.789 190.372 413.63 190.52C413.271 190.85 412.83 191.241 412.393 191.624C411.495 192.41 410.33 193.411 409.203 194.372C408.067 195.341 406.934 196.301 406.088 197.017C405.664 197.375 405.311 197.674 405.063 197.883C404.94 197.987 404.841 198.07 404.774 198.126C404.769 198.13 404.764 198.134 404.76 198.138C402.032 200.547 398.712 201.991 395.178 202.266C393.112 202.426 391.221 202.035 390.512 201.885C389.368 201.642 388.107 201.289 386.79 200.825C384.165 199.9 380.953 198.409 377.736 196.106C376.47 195.2 375.209 194.168 373.988 193.005C372.011 197.568 367.634 200.94 362.368 201.35L362.177 201.364C361.978 201.38 361.778 201.39 361.578 201.396L342.361 201.926C342.229 201.929 342.096 201.931 341.964 201.931C340.65 201.923 339.389 201.742 338.199 201.412C335.864 205.516 331.474 208.36 326.275 208.36H312.013C307.683 208.36 303.913 206.386 301.425 203.355C298.374 204.331 295.26 204.335 292.343 203.708L291.217 203.466C283.528 201.814 276.933 198.8 271.559 194.743L266.94 201.251C264.418 204.805 260.167 206.711 255.836 206.232C251.504 205.753 247.773 202.963 246.088 198.944L238.127 179.954C238.092 179.87 238.059 179.784 238.025 179.699C233.61 181.404 229.088 182.368 224.608 182.627C215.288 183.166 206.094 180.591 198.536 175.657L198.694 179.59C198.701 179.75 198.704 179.911 198.704 180.072C198.704 187.177 193.307 193.962 185.255 194.537C185.185 194.542 185.115 194.547 185.045 194.551L161.046 195.842C160.838 195.876 160.596 195.913 160.327 195.941C160.135 195.962 159.914 195.979 159.67 195.991L159.671 195.992L140.95 196.952C140.746 196.963 140.541 196.968 140.336 196.968H140.144C131.561 196.968 126.487 189.867 125.978 183.757C125.967 183.635 125.959 183.512 125.952 183.39L122.017 108.51C122.006 108.3 122 108.09 122 107.88V107.688C122 100.089 128.134 93.7793 135.67 93.4912L153.021 92.5381L153.351 92.5244C153.46 92.5214 153.57 92.5195 153.68 92.5195H153.749L178.97 91.1924L179.284 91.1797C179.389 91.1769 179.494 91.1758 179.6 91.1758H179.792C184.05 91.1758 187.478 93.0807 189.701 95.2402C191.851 97.3289 193.622 100.361 194.021 104.03L194.055 104.388L194.083 104.833L194.415 112.059C200.241 107.036 207.925 103.586 217.413 103.038C217.624 103.026 217.834 103.018 218.044 103.009L218.161 90.5537C218.198 85.7488 220.538 81.7748 223.716 79.2715C226.674 76.9413 230.047 76.0564 232.865 75.8936L233.072 75.8828L249.67 75.2119C251.723 75.115 254.346 75.3133 256.975 76.4141C257.661 74.488 258.802 72.6913 260.396 71.2031C263.113 68.6683 266.487 67.624 269.544 67.624L269.778 67.626L305.811 68.3301L305.81 68.3311C313.798 68.4594 318.792 75.1616 318.792 81.6084C318.792 81.6595 318.792 81.7106 318.791 81.7617L318.783 82.333C320.313 81.3546 321.979 80.7562 323.622 80.4795L323.788 74.0664L323.802 73.7227C323.808 73.6083 323.816 73.494 323.825 73.3799C324.418 66.2626 330.378 61.0323 337.256 61.0322L337.56 61.0361L354.124 61.4551C354.297 61.2981 354.475 61.1437 354.66 60.9932C357.309 58.835 360.116 58.3079 360.966 58.1533L361.304 58.0967C361.417 58.0794 361.53 58.0638 361.644 58.0498L366.315 57.4746C366.803 57.4146 367.293 57.3838 367.784 57.3838H367.976C369.237 57.3838 370.399 57.5371 371.465 57.8076C373.193 57.1839 374.818 57 376.104 57L376.526 57.0068Z"/>
</mask>
<path d="M376.526 57.0068C380.294 57.1252 383.022 58.7971 384.112 59.5469L384.487 59.8115L384.777 60.0254C385.064 60.2435 385.34 60.4747 385.606 60.7178L388.817 63.6514C388.912 63.7255 389.006 63.8 389.099 63.877C391.292 65.705 393.045 68.3238 393.675 71.4883L397.388 69.0225C399.029 67.8348 402.058 66.0879 406.128 66.0879C408.032 66.0879 409.537 66.5283 410.136 66.7139C410.915 66.9554 411.595 67.2338 412.105 67.46C413.134 67.9161 414.146 68.4614 415.037 68.9775C416.85 70.0278 418.881 71.3799 420.796 72.8223C422.666 74.2307 424.777 75.9887 426.552 77.8887C427.429 78.8279 428.487 80.0785 429.393 81.5742C429.959 82.5096 430.904 84.2443 431.363 86.5449C431.955 86.2018 432.501 85.8772 432.991 85.5713C433.793 85.0707 434.653 84.6672 435.55 84.3682C435.573 84.3605 435.998 84.2146 436.467 84.0869C436.777 84.0023 438.128 83.624 439.856 83.624L440.324 83.6318C445.143 83.7997 449.24 86.5479 451.427 90.374C451.447 90.4102 451.468 90.447 451.488 90.4834L457.056 100.466C458.835 103.63 458.704 106.608 458.704 106.824C458.704 111.762 456.062 115.329 453.746 117.259C453.664 117.327 453.58 117.395 453.496 117.461C440.918 127.384 427.333 134.516 413.082 138.699C412.865 138.769 412.519 138.875 412.143 138.97C411.475 139.136 410.349 139.368 408.944 139.368C406.694 139.368 404.589 138.804 402.749 137.827C402.702 138.031 402.652 138.234 402.595 138.436L402.591 138.45C402.574 138.511 402.552 138.57 402.534 138.63C407.038 144.64 409.855 151.983 410.497 160.249L410.742 163.407C410.882 165.201 411.168 166.111 411.382 166.581C411.535 166.919 411.757 167.28 412.348 167.764C413.107 168.334 414.17 169.222 415.196 170.434C416.331 171.772 418.351 174.594 418.669 178.679C419.027 183.29 417.078 187.127 414.461 189.707C414.401 189.769 414.355 189.819 414.324 189.851C414.053 190.125 413.789 190.372 413.63 190.52C413.271 190.85 412.83 191.241 412.393 191.624C411.495 192.41 410.33 193.411 409.203 194.372C408.067 195.341 406.934 196.301 406.088 197.017C405.664 197.375 405.311 197.674 405.063 197.883C404.94 197.987 404.841 198.07 404.774 198.126C404.769 198.13 404.764 198.134 404.76 198.138C402.032 200.547 398.712 201.991 395.178 202.266C393.112 202.426 391.221 202.035 390.512 201.885C389.368 201.642 388.107 201.289 386.79 200.825C384.165 199.9 380.953 198.409 377.736 196.106C376.47 195.2 375.209 194.168 373.988 193.005C372.011 197.568 367.634 200.94 362.368 201.35L362.177 201.364C361.978 201.38 361.778 201.39 361.578 201.396L342.361 201.926C342.229 201.929 342.096 201.931 341.964 201.931C340.65 201.923 339.389 201.742 338.199 201.412C335.864 205.516 331.474 208.36 326.275 208.36H312.013C307.683 208.36 303.913 206.386 301.425 203.355C298.374 204.331 295.26 204.335 292.343 203.708L291.217 203.466C283.528 201.814 276.933 198.8 271.559 194.743L266.94 201.251C264.418 204.805 260.167 206.711 255.836 206.232C251.504 205.753 247.773 202.963 246.088 198.944L238.127 179.954C238.092 179.87 238.059 179.784 238.025 179.699C233.61 181.404 229.088 182.368 224.608 182.627C215.288 183.166 206.094 180.591 198.536 175.657L198.694 179.59C198.701 179.75 198.704 179.911 198.704 180.072C198.704 187.177 193.307 193.962 185.255 194.537C185.185 194.542 185.115 194.547 185.045 194.551L161.046 195.842C160.838 195.876 160.596 195.913 160.327 195.941C160.135 195.962 159.914 195.979 159.67 195.991L159.671 195.992L140.95 196.952C140.746 196.963 140.541 196.968 140.336 196.968H140.144C131.561 196.968 126.487 189.867 125.978 183.757C125.967 183.635 125.959 183.512 125.952 183.39L122.017 108.51C122.006 108.3 122 108.09 122 107.88V107.688C122 100.089 128.134 93.7793 135.67 93.4912L153.021 92.5381L153.351 92.5244C153.46 92.5214 153.57 92.5195 153.68 92.5195H153.749L178.97 91.1924L179.284 91.1797C179.389 91.1769 179.494 91.1758 179.6 91.1758H179.792C184.05 91.1758 187.478 93.0807 189.701 95.2402C191.851 97.3289 193.622 100.361 194.021 104.03L194.055 104.388L194.083 104.833L194.415 112.059C200.241 107.036 207.925 103.586 217.413 103.038C217.624 103.026 217.834 103.018 218.044 103.009L218.161 90.5537C218.198 85.7488 220.538 81.7748 223.716 79.2715C226.674 76.9413 230.047 76.0564 232.865 75.8936L233.072 75.8828L249.67 75.2119C251.723 75.115 254.346 75.3133 256.975 76.4141C257.661 74.488 258.802 72.6913 260.396 71.2031C263.113 68.6683 266.487 67.624 269.544 67.624L269.778 67.626L305.811 68.3301L305.81 68.3311C313.798 68.4594 318.792 75.1616 318.792 81.6084C318.792 81.6595 318.792 81.7106 318.791 81.7617L318.783 82.333C320.313 81.3546 321.979 80.7562 323.622 80.4795L323.788 74.0664L323.802 73.7227C323.808 73.6083 323.816 73.494 323.825 73.3799C324.418 66.2626 330.378 61.0323 337.256 61.0322L337.56 61.0361L354.124 61.4551C354.297 61.2981 354.475 61.1437 354.66 60.9932C357.309 58.835 360.116 58.3079 360.966 58.1533L361.304 58.0967C361.417 58.0794 361.53 58.0638 361.644 58.0498L366.315 57.4746C366.803 57.4146 367.293 57.3838 367.784 57.3838H367.976C369.237 57.3838 370.399 57.5371 371.465 57.8076C373.193 57.1839 374.818 57 376.104 57L376.526 57.0068Z" fill="#89DCEB" stroke="#74C7EC" stroke-width="10" mask="url(#path-1-inside-1_93_30)"/>
<mask id="path-2-inside-2_93_30" fill="white">
<path d="M362.382 42.6469C366.15 42.7652 368.878 44.4371 369.968 45.1869L370.343 45.4515L370.633 45.6654C370.92 45.8835 371.196 46.1147 371.462 46.3578L374.673 49.2914C374.768 49.3655 374.862 49.44 374.955 49.517C377.148 51.345 378.901 53.9638 379.531 57.1283L383.244 54.6625C384.885 53.4748 387.914 51.7279 391.984 51.7279C393.888 51.7279 395.393 52.1684 395.992 52.3539C396.771 52.5954 397.451 52.8738 397.961 53.1C398.99 53.5561 400.002 54.1014 400.893 54.6176C402.706 55.6678 404.737 57.0199 406.652 58.4623C408.522 59.8707 410.633 61.6288 412.408 63.5287C413.285 64.4679 414.343 65.7185 415.249 67.2142C415.815 68.1496 416.76 69.8843 417.219 72.1849C417.811 71.8418 418.357 71.5173 418.847 71.2113C419.649 70.7107 420.509 70.3072 421.406 70.0082C421.429 70.0005 421.854 69.8547 422.323 69.7269C422.633 69.6423 423.984 69.264 425.712 69.264L426.18 69.2719C430.999 69.4398 435.096 72.1879 437.283 76.014C437.303 76.0502 437.324 76.087 437.344 76.1234L442.912 86.1058C444.691 89.2705 444.56 92.2476 444.56 92.4642C444.56 97.4021 441.918 100.969 439.602 102.899C439.52 102.967 439.436 103.035 439.352 103.101C426.774 113.024 413.189 120.156 398.938 124.339C398.721 124.409 398.375 124.516 397.999 124.61C397.331 124.777 396.205 125.008 394.8 125.008C392.55 125.008 390.445 124.444 388.605 123.467C388.558 123.671 388.508 123.874 388.451 124.076L388.447 124.09C388.43 124.151 388.408 124.21 388.39 124.27C392.894 130.28 395.711 137.623 396.353 145.889L396.598 149.047C396.738 150.841 397.024 151.751 397.238 152.221C397.391 152.559 397.613 152.92 398.204 153.404C398.963 153.974 400.026 154.862 401.052 156.074C402.187 157.412 404.207 160.234 404.525 164.319C404.883 168.93 402.934 172.767 400.317 175.347C400.257 175.409 400.211 175.459 400.18 175.491C399.909 175.765 399.645 176.012 399.486 176.16C399.127 176.49 398.686 176.881 398.249 177.264C397.351 178.05 396.186 179.051 395.059 180.012C393.923 180.981 392.79 181.941 391.944 182.657C391.52 183.015 391.167 183.314 390.919 183.523C390.796 183.627 390.697 183.71 390.63 183.766C390.625 183.77 390.62 183.774 390.616 183.778C387.888 186.187 384.568 187.631 381.034 187.906C378.968 188.066 377.077 187.675 376.368 187.525C375.224 187.282 373.963 186.929 372.646 186.465C370.021 185.54 366.809 184.049 363.592 181.746C362.326 180.84 361.065 179.808 359.844 178.645C357.867 183.208 353.49 186.58 348.224 186.99L348.033 187.004C347.834 187.02 347.634 187.03 347.434 187.036L328.217 187.566C328.085 187.569 327.952 187.571 327.82 187.571C326.506 187.563 325.245 187.382 324.055 187.052C321.72 191.156 317.33 194 312.131 194H297.869C293.539 194 289.769 192.026 287.281 188.995C284.23 189.971 281.116 189.975 278.199 189.348L277.073 189.106C269.384 187.454 262.789 184.44 257.415 180.383L252.796 186.891C250.274 190.445 246.023 192.351 241.692 191.872C237.36 191.393 233.629 188.604 231.944 184.584L223.983 165.594C223.948 165.51 223.915 165.424 223.881 165.339C219.466 167.044 214.944 168.008 210.464 168.267C201.144 168.806 191.95 166.231 184.392 161.297L184.55 165.23C184.557 165.39 184.56 165.552 184.56 165.712C184.56 172.817 179.163 179.602 171.111 180.177C171.041 180.182 170.971 180.187 170.901 180.191L146.902 181.482C146.694 181.516 146.452 181.553 146.183 181.581C145.991 181.602 145.77 181.619 145.526 181.631L145.527 181.632L126.806 182.592C126.602 182.603 126.397 182.608 126.192 182.608H126C117.417 182.608 112.343 175.507 111.834 169.397C111.823 169.275 111.815 169.152 111.808 169.03L107.873 94.1498C107.862 93.94 107.856 93.7299 107.856 93.5199V93.3285C107.856 85.7292 113.99 79.4194 121.526 79.1312L138.877 78.1781L139.207 78.1644C139.316 78.1614 139.426 78.1595 139.536 78.1595H139.605L164.826 76.8324L165.14 76.8197C165.245 76.8169 165.35 76.8158 165.456 76.8158H165.648C169.906 76.8158 173.334 78.7207 175.557 80.8802C177.707 82.9689 179.478 86.0011 179.877 89.6703L179.911 90.0277L179.939 90.473L180.271 97.6986C186.097 92.6765 193.781 89.2263 203.269 88.6781C203.48 88.6659 203.69 88.6578 203.9 88.6488L204.017 76.1937C204.054 71.3888 206.394 67.4148 209.572 64.9115C212.53 62.5814 215.903 61.6964 218.721 61.5336L218.928 61.5228L235.526 60.8519C237.579 60.755 240.202 60.9533 242.831 62.0541C243.517 60.128 244.658 58.3313 246.252 56.8431C248.969 54.3083 252.343 53.2641 255.4 53.264L255.634 53.266L291.667 53.9701L291.666 53.9711C299.654 54.0994 304.648 60.8016 304.648 67.2484C304.648 67.2995 304.648 67.3506 304.647 67.4017L304.639 67.973C306.169 66.9946 307.835 66.3962 309.478 66.1195L309.644 59.7064L309.658 59.3627C309.664 59.2483 309.672 59.134 309.681 59.0199C310.274 51.9026 316.234 46.6723 323.112 46.6722L323.416 46.6761L339.98 47.0951C340.153 46.9382 340.331 46.7837 340.516 46.6332C343.165 44.475 345.972 43.9479 346.822 43.7933L347.16 43.7367C347.273 43.7195 347.386 43.7038 347.5 43.6898L352.171 43.1146C352.659 43.0546 353.149 43.0238 353.64 43.0238H353.832C355.093 43.0238 356.255 43.1771 357.321 43.4476C359.049 42.824 360.674 42.64 361.96 42.64L362.382 42.6469Z"/>
</mask>
<path d="M362.382 42.6469C366.15 42.7652 368.878 44.4371 369.968 45.1869L370.343 45.4515L370.633 45.6654C370.92 45.8835 371.196 46.1147 371.462 46.3578L374.673 49.2914C374.768 49.3655 374.862 49.44 374.955 49.517C377.148 51.345 378.901 53.9638 379.531 57.1283L383.244 54.6625C384.885 53.4748 387.914 51.7279 391.984 51.7279C393.888 51.7279 395.393 52.1684 395.992 52.3539C396.771 52.5954 397.451 52.8738 397.961 53.1C398.99 53.5561 400.002 54.1014 400.893 54.6176C402.706 55.6678 404.737 57.0199 406.652 58.4623C408.522 59.8707 410.633 61.6288 412.408 63.5287C413.285 64.4679 414.343 65.7185 415.249 67.2142C415.815 68.1496 416.76 69.8843 417.219 72.1849C417.811 71.8418 418.357 71.5173 418.847 71.2113C419.649 70.7107 420.509 70.3072 421.406 70.0082C421.429 70.0005 421.854 69.8547 422.323 69.7269C422.633 69.6423 423.984 69.264 425.712 69.264L426.18 69.2719C430.999 69.4398 435.096 72.1879 437.283 76.014C437.303 76.0502 437.324 76.087 437.344 76.1234L442.912 86.1058C444.691 89.2705 444.56 92.2476 444.56 92.4642C444.56 97.4021 441.918 100.969 439.602 102.899C439.52 102.967 439.436 103.035 439.352 103.101C426.774 113.024 413.189 120.156 398.938 124.339C398.721 124.409 398.375 124.516 397.999 124.61C397.331 124.777 396.205 125.008 394.8 125.008C392.55 125.008 390.445 124.444 388.605 123.467C388.558 123.671 388.508 123.874 388.451 124.076L388.447 124.09C388.43 124.151 388.408 124.21 388.39 124.27C392.894 130.28 395.711 137.623 396.353 145.889L396.598 149.047C396.738 150.841 397.024 151.751 397.238 152.221C397.391 152.559 397.613 152.92 398.204 153.404C398.963 153.974 400.026 154.862 401.052 156.074C402.187 157.412 404.207 160.234 404.525 164.319C404.883 168.93 402.934 172.767 400.317 175.347C400.257 175.409 400.211 175.459 400.18 175.491C399.909 175.765 399.645 176.012 399.486 176.16C399.127 176.49 398.686 176.881 398.249 177.264C397.351 178.05 396.186 179.051 395.059 180.012C393.923 180.981 392.79 181.941 391.944 182.657C391.52 183.015 391.167 183.314 390.919 183.523C390.796 183.627 390.697 183.71 390.63 183.766C390.625 183.77 390.62 183.774 390.616 183.778C387.888 186.187 384.568 187.631 381.034 187.906C378.968 188.066 377.077 187.675 376.368 187.525C375.224 187.282 373.963 186.929 372.646 186.465C370.021 185.54 366.809 184.049 363.592 181.746C362.326 180.84 361.065 179.808 359.844 178.645C357.867 183.208 353.49 186.58 348.224 186.99L348.033 187.004C347.834 187.02 347.634 187.03 347.434 187.036L328.217 187.566C328.085 187.569 327.952 187.571 327.82 187.571C326.506 187.563 325.245 187.382 324.055 187.052C321.72 191.156 317.33 194 312.131 194H297.869C293.539 194 289.769 192.026 287.281 188.995C284.23 189.971 281.116 189.975 278.199 189.348L277.073 189.106C269.384 187.454 262.789 184.44 257.415 180.383L252.796 186.891C250.274 190.445 246.023 192.351 241.692 191.872C237.36 191.393 233.629 188.604 231.944 184.584L223.983 165.594C223.948 165.51 223.915 165.424 223.881 165.339C219.466 167.044 214.944 168.008 210.464 168.267C201.144 168.806 191.95 166.231 184.392 161.297L184.55 165.23C184.557 165.39 184.56 165.552 184.56 165.712C184.56 172.817 179.163 179.602 171.111 180.177C171.041 180.182 170.971 180.187 170.901 180.191L146.902 181.482C146.694 181.516 146.452 181.553 146.183 181.581C145.991 181.602 145.77 181.619 145.526 181.631L145.527 181.632L126.806 182.592C126.602 182.603 126.397 182.608 126.192 182.608H126C117.417 182.608 112.343 175.507 111.834 169.397C111.823 169.275 111.815 169.152 111.808 169.03L107.873 94.1498C107.862 93.94 107.856 93.7299 107.856 93.5199V93.3285C107.856 85.7292 113.99 79.4194 121.526 79.1312L138.877 78.1781L139.207 78.1644C139.316 78.1614 139.426 78.1595 139.536 78.1595H139.605L164.826 76.8324L165.14 76.8197C165.245 76.8169 165.35 76.8158 165.456 76.8158H165.648C169.906 76.8158 173.334 78.7207 175.557 80.8802C177.707 82.9689 179.478 86.0011 179.877 89.6703L179.911 90.0277L179.939 90.473L180.271 97.6986C186.097 92.6765 193.781 89.2263 203.269 88.6781C203.48 88.6659 203.69 88.6578 203.9 88.6488L204.017 76.1937C204.054 71.3888 206.394 67.4148 209.572 64.9115C212.53 62.5814 215.903 61.6964 218.721 61.5336L218.928 61.5228L235.526 60.8519C237.579 60.755 240.202 60.9533 242.831 62.0541C243.517 60.128 244.658 58.3313 246.252 56.8431C248.969 54.3083 252.343 53.2641 255.4 53.264L255.634 53.266L291.667 53.9701L291.666 53.9711C299.654 54.0994 304.648 60.8016 304.648 67.2484C304.648 67.2995 304.648 67.3506 304.647 67.4017L304.639 67.973C306.169 66.9946 307.835 66.3962 309.478 66.1195L309.644 59.7064L309.658 59.3627C309.664 59.2483 309.672 59.134 309.681 59.0199C310.274 51.9026 316.234 46.6723 323.112 46.6722L323.416 46.6761L339.98 47.0951C340.153 46.9382 340.331 46.7837 340.516 46.6332C343.165 44.475 345.972 43.9479 346.822 43.7933L347.16 43.7367C347.273 43.7195 347.386 43.7038 347.5 43.6898L352.171 43.1146C352.659 43.0546 353.149 43.0238 353.64 43.0238H353.832C355.093 43.0238 356.255 43.1771 357.321 43.4476C359.049 42.824 360.674 42.64 361.96 42.64L362.382 42.6469Z" fill="white" stroke="#74C7EC" stroke-width="10" mask="url(#path-2-inside-2_93_30)"/>
<g opacity="0.75">
<path d="M170.256 168.208L145.296 169.552C145.2 169.552 145.008 169.648 144.912 169.648L126.192 170.608H126C124.848 170.608 123.888 169.552 123.792 168.4L119.856 93.52V93.328C119.856 92.176 120.912 91.12 122.064 91.12L139.536 90.16H139.92L165.456 88.816H165.648C166.8 88.816 167.856 89.872 167.952 91.024L168.72 107.728V107.92C168.72 109.072 167.664 110.128 166.512 110.224L144.144 111.376L144.624 119.632H161.808C162.96 119.632 164.112 120.592 164.112 121.84V122.032L163.92 136.72C163.824 138.064 162.864 139.12 161.52 139.12H145.584L146.064 148.048L169.392 146.8H169.584C170.832 146.8 171.888 147.856 171.888 149.008L172.56 165.712C172.56 166.96 171.6 168.112 170.256 168.208Z" fill="#F38BA8"/>
<path d="M247.174 141.24L242.691 153.52C242.03 155.385 241.127 156.399 239.689 156.482C239.689 156.482 231.397 156.095 225.72 151.038C220.524 154.32 215.043 155.983 209.772 156.287C193.767 157.212 179.353 145.736 178.461 130.306C177.785 118.614 184.985 101.754 203.961 100.658C208.082 100.42 212.253 101.044 215.776 102.091L216.016 76.3057C216.018 74.6709 217.496 73.6239 219.413 73.5131L236.01 72.8426C238.694 72.6875 239.532 73.8891 239.61 75.2309L239.626 75.5184C239.507 76.7754 238.749 116.918 239.131 123.531C239.585 131.39 241.073 137.17 245.102 138.668C246.184 139.086 247.266 139.504 247.316 140.367C247.333 140.654 247.349 140.942 247.174 141.24ZM218.051 136.481C217.131 132.207 216.454 127.149 216.1 121.015C214.935 119.159 212.174 117.973 209.299 118.139C203.548 118.471 200.211 123.953 200.521 129.32C200.831 134.687 204.835 139.071 210.968 138.717C213.077 138.595 215.44 137.882 218.051 136.481Z" fill="#FAB387"/>
<path d="M280.72 177.616L279.594 177.374C258.288 172.795 250.714 155.948 253.78 141.682C256.664 128.26 269.169 116.219 290.568 120.817C313.845 125.819 310.42 146.783 309.755 149.881C308.827 154.198 306.277 157.381 300.336 158.069C295.602 158.622 288.435 158.162 283.514 157.301C282.012 156.979 281.684 156.221 281.551 155.014C281.09 151.674 280.618 145.191 280.698 144.815C280.92 143.783 281.772 143.475 283.053 143.455C288.175 143.378 288.873 143.331 289.155 142.017C289.336 141.173 288.199 137.786 284.256 136.939C279.751 135.971 275.15 139.106 273.9 144.925C272.468 151.589 275.735 160.146 287.467 162.668C288.124 162.809 288.875 162.97 289.552 163.017L289.74 163.058C291.054 163.34 292.468 164.528 292.125 166.123C291.923 167.062 288.111 172.92 286.018 175.808C284.944 177.149 283.442 178.201 280.72 177.616Z" fill="#A6E3A1"/>
<path d="M384.389 146.819L384.634 149.977C385.051 155.337 386.63 159.547 390.836 162.879C391.448 163.313 392.479 164.196 392.561 165.249C392.606 165.823 392.363 166.42 391.731 166.95C391.745 167.142 382.798 174.674 382.798 174.674C381.9 175.514 380.966 175.875 380.104 175.942C378.381 176.076 362.673 172.193 361.35 155.157L361.097 151.902C360.316 141.853 355.107 138.021 348.09 138.181L348.972 173.065C349.046 174.023 348.252 174.951 347.295 175.025L347.103 175.04L327.887 175.571C326.731 175.564 325.898 174.762 325.809 173.614L324.525 123.643C324.539 122.583 325.334 121.654 326.291 121.58L326.482 121.565L337.246 121.306C340.92 120.251 344.431 119.592 347.877 119.325C367.306 117.815 382.968 128.538 384.389 146.819Z" fill="#89B4FA"/>
<path d="M404.784 76.144L394.736 83.248C394.032 83.76 393.584 83.952 393.2 83.952C392.752 83.952 392.432 83.632 391.984 83.184C382.384 73.392 381.104 72.048 381.104 70.96C381.104 70.64 381.232 70.384 381.552 70.192L390.128 64.496C390.704 64.048 391.344 63.728 391.984 63.728C393.84 63.728 405.488 71.536 405.488 74.864C405.488 75.376 405.296 75.76 404.784 76.144ZM426.864 81.968L432.432 91.952C432.56 92.144 432.56 92.336 432.56 92.464C432.56 92.912 432.304 93.36 431.92 93.68C420.4 102.768 408.112 109.168 395.376 112.88C395.184 112.944 394.992 113.008 394.8 113.008C394.352 113.008 393.904 112.752 393.648 112.304L387.312 100.976C387.248 100.784 387.184 100.592 387.184 100.4C387.184 99.952 387.44 99.504 387.888 99.248C397.936 95.344 417.2 86.384 425.2 81.392C425.392 81.328 425.584 81.264 425.712 81.264C426.16 81.264 426.608 81.52 426.864 81.968Z" fill="#FFB900"/>
<path d="M361.512 87.6L338.024 88.752C345.96 90.48 346.408 91.12 346.408 92.464C346.408 98.096 339.944 111.92 327.272 115.44C327.016 115.504 326.76 115.568 326.568 115.568C325.544 115.568 324.904 114.864 324.008 113.648L319.144 107.12C318.952 106.864 318.888 106.672 318.888 106.416C318.888 105.776 319.72 105.264 320.488 104.944C328.424 102 330.472 93.36 330.6 89.072L312.616 89.968H312.488C311.784 89.968 311.208 89.328 311.144 88.624L310.696 79.344V79.152C310.696 78.448 310.952 77.936 311.656 77.936L360.552 75.568H360.68C361.384 75.568 362.344 76.208 362.408 76.912L362.856 86.128V86.256C362.856 87.024 362.216 87.536 361.512 87.6ZM350.568 72.048H350.44L322.728 71.344C322.024 71.344 321.384 70.768 321.384 70.064V69.936L321.64 60.016C321.704 59.248 322.344 58.672 323.112 58.672L348.392 59.312L347.88 57.52C347.816 57.2 347.752 57.008 347.752 56.752C347.752 55.984 348.264 55.728 348.968 55.6L353.64 55.024H353.832C354.728 55.024 355.368 55.792 355.56 56.56L356.648 61.36C356.712 61.552 356.712 61.744 356.712 61.936C356.712 62.64 356.264 63.024 355.176 63.152L352.104 63.344L351.912 70.768C351.912 71.472 351.272 72.048 350.568 72.048ZM367.144 60.848L363.624 63.92C363.304 64.176 362.984 64.304 362.728 64.304C362.28 64.304 361.896 64.048 361.576 63.728L357.48 59.312C357.16 58.992 357.032 58.672 357.032 58.416C357.032 57.968 357.48 57.648 357.736 57.456L361 54.96C361.32 54.704 361.64 54.64 361.96 54.64C362.472 54.64 362.92 54.896 363.368 55.216L367.08 58.608L367.272 58.736C367.656 59.056 367.784 59.376 367.784 59.696C367.784 60.08 367.528 60.464 367.144 60.848Z" fill="#FB64B6"/>
<path d="M297.192 109.04L252.456 111.152C251.752 111.152 251.176 110.576 251.112 109.872L250.408 99.952C250.408 99.248 250.6 98.608 251.304 98.608L266.024 97.904V78L255.144 77.808C254.44 77.808 253.864 77.168 253.864 76.464L254.056 66.544C254.056 65.776 254.632 65.264 255.4 65.264L291.432 65.968C292.136 65.968 292.648 66.544 292.648 67.248L292.52 77.232C292.52 77.872 291.944 78.448 291.304 78.448H291.176L280.296 78.256V97.2L296.04 96.496H296.168C296.808 96.496 297.704 97.072 297.768 97.776L298.408 107.696V107.824C298.408 108.464 297.832 108.976 297.192 109.04Z" fill="#00BCFF"/>
</g>
<g opacity="0.75">
<path d="M312.131 164H297.869C296.914 164 296.139 164.787 296.139 165.758V180.242C296.139 181.212 296.914 182 297.869 182H312.131C313.087 182 313.861 181.213 313.861 180.242V165.758C313.861 164.788 313.087 164 312.131 164ZM306.419 173.984H304.204V180.418H302.439V173.984H300.223V172.543H306.419V173.984ZM312.131 179.261C311.992 179.578 311.754 179.813 311.473 180C311.175 180.184 310.847 180.315 310.504 180.386C310.117 180.467 309.722 180.508 309.327 180.506C308.921 180.507 308.515 180.47 308.116 180.396C307.767 180.335 307.429 180.223 307.112 180.066V178.377L307.046 178.324L307.112 178.309V178.377C307.406 178.615 307.73 178.797 308.084 178.922C308.431 179.055 308.811 179.122 309.192 179.122C309.434 179.122 309.618 179.101 309.781 179.062C309.927 179.029 310.068 178.972 310.196 178.894C310.298 178.832 310.383 178.745 310.442 178.641C310.503 178.525 310.531 178.395 310.521 178.265C310.512 178.134 310.467 178.009 310.39 177.903C310.297 177.771 310.179 177.657 310.044 177.568C309.881 177.453 309.707 177.354 309.524 177.273C309.317 177.178 309.106 177.079 308.867 176.981C308.278 176.7 307.814 176.419 307.517 176.031C307.216 175.681 307.067 175.223 307.067 174.696C307.067 174.274 307.147 173.936 307.309 173.641C307.482 173.325 307.686 173.093 307.967 172.903C308.244 172.71 308.555 172.569 308.936 172.481C309.316 172.393 309.698 172.348 310.113 172.348C310.528 172.348 310.875 172.372 311.186 172.421C311.497 172.471 311.788 172.548 312.051 172.65V174.302C311.922 174.207 311.782 174.126 311.636 174.06C311.326 173.926 311 173.833 310.666 173.785C310.517 173.763 310.367 173.752 310.216 173.752C310.03 173.75 309.845 173.769 309.663 173.809C309.516 173.838 309.375 173.893 309.247 173.97C309.142 174.032 309.054 174.118 308.987 174.22C308.925 174.318 308.893 174.431 308.894 174.547C308.894 174.676 308.929 174.793 308.998 174.898C309.067 174.999 309.165 175.098 309.293 175.194C309.407 175.285 309.563 175.377 309.743 175.468C309.95 175.559 310.137 175.651 310.366 175.746C310.677 175.879 310.954 176.027 311.196 176.168C311.439 176.308 311.643 176.473 311.819 176.66C312.006 176.835 312.141 177.047 312.235 177.293C312.329 177.539 312.377 177.816 312.377 178.136C312.377 178.593 312.269 178.945 312.131 179.261Z" fill="#51A2FF"/>
</g>
<g opacity="0.75">
<path d="M376 99C376.774 99 376.949 99.711 377.173 100.292C377.323 100.679 377.54 101.214 377.812 101.802C378.371 103.012 379.106 104.328 379.889 105.112C380.672 105.894 381.989 106.63 383.197 107.188C383.786 107.46 384.321 107.678 384.708 107.828C385.275 108.046 386 108.258 386 109C386 109.774 385.289 109.949 384.708 110.173C384.321 110.323 383.786 110.54 383.198 110.812C381.988 111.371 380.672 112.106 379.888 112.889C379.106 113.672 378.371 114.989 377.812 116.197C377.583 116.694 377.37 117.198 377.172 117.708C376.95 118.286 376.769 119 376 119C375.239 119 375.049 118.282 374.827 117.708C374.63 117.198 374.417 116.694 374.188 116.198C373.63 114.988 372.894 113.672 372.111 112.888C371.328 112.106 370.011 111.371 368.803 110.812C368.306 110.583 367.802 110.369 367.292 110.172C366.712 109.95 366 109.774 366 109C366 108.226 366.711 108.051 367.292 107.827C367.679 107.677 368.214 107.46 368.802 107.188C370.012 106.63 371.328 105.894 372.112 105.111C372.894 104.328 373.63 103.011 374.188 101.803C374.46 101.214 374.678 100.679 374.828 100.292C375.047 99.719 375.235 99 376 99Z" fill="#FDC700"/>
</g>
<g opacity="0.75">
<path d="M235.05 160.955L238.529 161.34L243.67 173.982L251.45 162.769L254.929 163.154L243.011 179.945L235.05 160.955ZM239.523 161.45L242.505 161.78L244.486 166.607L247.474 162.329L250.456 162.659L243.881 172.073L239.523 161.45Z" fill="#7C86FF"/>
</g>
</svg>
